<svg width="26" height="26" viewBox="0 0 26 26" fill="none" xmlns="http://www.w3.org/2000/svg">
<path d="M7.37315 0H18.0515C22.1195 0 25.4247 3.30521 25.4247 7.37315V18.0515C25.4247 20.007 24.6478 21.8824 23.2651 23.2651C21.8824 24.6478 20.007 25.4247 18.0515 25.4247H7.37315C3.30521 25.4247 0 22.1195 0 18.0515V7.37315C0 5.41767 0.776812 3.54228 2.15955 2.15955C3.54228 0.776812 5.41767 0 7.37315 0ZM7.1189 2.54247C5.90516 2.54247 4.74112 3.02462 3.88287 3.88287C3.02462 4.74112 2.54247 5.90516 2.54247 7.1189V18.3058C2.54247 20.8355 4.58915 22.8822 7.1189 22.8822H18.3058C19.5195 22.8822 20.6835 22.4 21.5418 21.5418C22.4 20.6835 22.8822 19.5195 22.8822 18.3058V7.1189C22.8822 4.58915 20.8355 2.54247 18.3058 2.54247H7.1189ZM19.3863 4.44931C19.8077 4.44931 20.2119 4.61673 20.5099 4.91473C20.8079 5.21274 20.9753 5.61692 20.9753 6.03836C20.9753 6.4598 20.8079 6.86397 20.5099 7.16198C20.2119 7.45998 19.8077 7.6274 19.3863 7.6274C18.9649 7.6274 18.5607 7.45998 18.2627 7.16198C17.9647 6.86397 17.7973 6.4598 17.7973 6.03836C17.7973 5.61692 17.9647 5.21274 18.2627 4.91473C18.5607 4.61673 18.9649 4.44931 19.3863 4.44931ZM12.7123 6.35616C14.3981 6.35616 16.0148 7.02583 17.2068 8.21784C18.3988 9.40985 19.0685 11.0266 19.0685 12.7123C19.0685 14.3981 18.3988 16.0148 17.2068 17.2068C16.0148 18.3988 14.3981 19.0685 12.7123 19.0685C11.0266 19.0685 9.40985 18.3988 8.21784 17.2068C7.02583 16.0148 6.35616 14.3981 6.35616 12.7123C6.35616 11.0266 7.02583 9.40985 8.21784 8.21784C9.40985 7.02583 11.0266 6.35616 12.7123 6.35616ZM12.7123 8.89863C11.7009 8.89863 10.7308 9.30043 10.0156 10.0156C9.30043 10.7308 8.89863 11.7009 8.89863 12.7123C8.89863 13.7238 9.30043 14.6938 10.0156 15.409C10.7308 16.1242 11.7009 16.526 12.7123 16.526C13.7238 16.526 14.6938 16.1242 15.409 15.409C16.1242 14.6938 16.526 13.7238 16.526 12.7123C16.526 11.7009 16.1242 10.7308 15.409 10.0156C14.6938 9.30043 13.7238 8.89863 12.7123 8.89863Z" fill="#FFFBFD"/>
</svg>
