<svg width="23" height="26" viewBox="0 0 23 26" fill="none" xmlns="http://www.w3.org/2000/svg">
<path d="M15.8002 19.0293C16.0452 17.0388 14.7566 15.7696 11.354 14.6891C9.70544 14.1298 8.92907 13.3967 8.94718 12.3892C9.0164 11.2705 10.0633 10.4559 11.452 10.4294C12.5457 10.4405 13.6126 10.7681 14.5223 11.3722C14.6458 11.4485 14.7321 11.4358 14.8024 11.3299C14.8982 11.1773 15.1378 10.8076 15.2177 10.6731C15.272 10.5883 15.2827 10.476 15.1453 10.3764C14.9483 10.2313 14.3956 9.9368 14.0984 9.81286C13.2525 9.45578 12.3433 9.27065 11.4243 9.26835C9.39021 9.27682 7.78956 10.5555 7.65431 12.2621C7.56805 13.4941 8.18147 14.4942 9.4967 15.2569C9.77679 15.4179 11.2858 16.0154 11.8865 16.2019C13.7757 16.7866 14.7566 17.8354 14.5255 19.059C14.3157 20.1681 13.1421 20.8853 11.5244 20.9065C10.2432 20.8578 9.08882 20.3376 8.19425 19.6458L8.04409 19.5293C7.93333 19.4446 7.81192 19.4499 7.73844 19.5611C7.68519 19.6427 7.33801 20.1406 7.25069 20.2709C7.16868 20.3853 7.21341 20.4488 7.29861 20.5188C7.67135 20.8292 8.16869 21.1681 8.50628 21.3398C9.44151 21.8134 10.4701 22.0764 11.5191 22.1099C12.2743 22.1455 13.0282 22.0175 13.7289 21.7349C14.895 21.2423 15.649 20.2582 15.8002 19.0293ZM11.6032 1.48416C9.40085 1.48416 7.60532 3.54992 7.52119 6.13476H15.6842C15.5979 3.54886 13.8034 1.48311 11.6032 1.48311V1.48416ZM19.9643 25.4236L19.8791 25.4247L3.06963 25.4225C1.92585 25.3802 1.08559 24.4585 0.970576 23.3134L0.959927 23.1068L0.206995 6.65914C0.201903 6.59303 0.210456 6.52659 0.232129 6.46389C0.253801 6.40119 0.288135 6.34356 0.33302 6.29455C0.377905 6.24554 0.432393 6.20617 0.493134 6.17887C0.553875 6.15158 0.619587 6.13692 0.68623 6.13582H5.98444C6.1133 2.72044 8.5787 0 11.6032 0C14.6256 0 17.091 2.7215 17.2209 6.1337H22.5117C22.578 6.13375 22.6436 6.14723 22.7045 6.1733C22.7654 6.19937 22.8203 6.2375 22.866 6.28537C22.9116 6.33323 22.947 6.38983 22.9699 6.45172C22.9928 6.51361 23.0029 6.5795 22.9994 6.64537L22.1762 23.1587L22.1687 23.2975C22.0686 24.4564 21.1261 25.3918 19.9643 25.4225V25.4236Z" fill="#FFFBFD"/>
</svg>
