<svg width="27" height="26" viewBox="0 0 27 26" fill="none" xmlns="http://www.w3.org/2000/svg">
<path d="M22.3223 3.69935C21.151 2.5221 19.7558 1.58869 18.2182 0.953562C16.6805 0.318435 15.0311 -0.00569525 13.3662 7.57266e-05C6.39041 7.57266e-05 0.704993 5.65704 0.704993 12.598C0.704993 14.8226 1.2927 16.9837 2.39145 18.8905L0.602783 25.4247L7.31029 23.6704C9.16284 24.6746 11.2454 25.2085 13.3662 25.2085C20.342 25.2085 26.0274 19.5516 26.0274 12.6107C26.0274 9.24191 24.7115 6.07655 22.3223 3.69935ZM13.3662 23.0729C11.4753 23.0729 9.62279 22.5644 8.00021 21.611L7.61692 21.3821L3.63074 22.4246L4.69117 18.56L4.43565 18.1659C3.38512 16.4968 2.8273 14.5674 2.82584 12.598C2.82584 6.82658 7.55304 2.12303 13.3534 2.12303C16.1642 2.12303 18.8089 3.21629 20.7892 5.1994C21.7697 6.17058 22.5468 7.32574 23.0754 8.59794C23.6039 9.87014 23.8734 11.2341 23.8683 12.6107C23.8938 18.382 19.1666 23.0729 13.3662 23.0729ZM19.1411 15.2421C18.8217 15.0896 17.263 14.3268 16.9819 14.2124C16.688 14.1107 16.4836 14.0599 16.2664 14.365C16.0492 14.6828 15.4487 15.3947 15.2699 15.5981C15.091 15.8142 14.8994 15.8396 14.58 15.6743C14.2606 15.5218 13.2385 15.1786 12.0375 14.1107C11.0921 13.2717 10.466 12.242 10.2744 11.9242C10.0955 11.6064 10.2488 11.4411 10.4149 11.2759C10.5554 11.136 10.7343 10.9072 10.8876 10.7292C11.0409 10.5513 11.1048 10.4114 11.207 10.208C11.3092 9.99194 11.2581 9.81397 11.1815 9.66142C11.1048 9.50887 10.466 7.95797 10.2105 7.32236C9.95497 6.71217 9.68667 6.78844 9.49502 6.77573H8.88177C8.66457 6.77573 8.33239 6.852 8.03854 7.16981C7.75746 7.48762 6.93978 8.25035 6.93978 9.80125C6.93978 11.3522 8.07687 12.8522 8.23018 13.0556C8.38349 13.2717 10.466 16.4498 13.6345 17.81C14.3883 18.1405 14.976 18.3312 15.436 18.471C16.1898 18.7126 16.8797 18.6744 17.4291 18.5982C18.0423 18.5092 19.3072 17.8354 19.5627 17.0981C19.831 16.3608 19.831 15.7379 19.7415 15.5981C19.6521 15.4582 19.4605 15.3947 19.1411 15.2421Z" fill="#FFFBFD"/>
</svg>
